HIERARCHY
ROOT Hips
{
  OFFSET 5.84602e-005 68.8428 3.50346
  CHANNELS 6 Xposition Yposition Zposition Zrotation Xrotation Yrotation
  JOINT Spine
  {
    OFFSET 0 8.597 -4.6522
    CHANNELS 3 Zrotation Xrotation Yrotation
    JOINT Spine1
    {
      OFFSET 0 7.8454 0.4098
      CHANNELS 3 Zrotation Xrotation Yrotation
      JOINT Spine2
      {
        OFFSET 0 9.7078 -2.1609
        CHANNELS 3 Zrotation Xrotation Yrotation
        JOINT Neck
        {
          OFFSET 0 21.8761 -0.4549
          CHANNELS 3 Zrotation Xrotation Yrotation
          JOINT Head
          {
            OFFSET 0 12.3537 3.3602
            CHANNELS 3 Zrotation Xrotation Yrotation
            End Site
            {
              OFFSET 0.0001 18.9506 0.5657
            }
          }
        }
        JOINT LeftShoulder
        {
          OFFSET 2.2086 21.1115 7.2329
          CHANNELS 3 Zrotation Xrotation Yrotation
          JOINT LeftArm
          {
            OFFSET 13.1193 3.0282 -4.8998
            CHANNELS 3 Zrotation Xrotation Yrotation
            JOINT LeftForeArm
            {
              OFFSET 27.4081 -0.0973053 -0.2375
              CHANNELS 3 Zrotation Xrotation Yrotation
              JOINT LeftHand
              {
                OFFSET 22.8641 0.0662994 -0.1369
                CHANNELS 3 Zrotation Xrotation Yrotation
                JOINT LeftHandIndex1
                {
                  OFFSET 8.8614 0.775009 2.4612
                  CHANNELS 3 Zrotation Xrotation Yrotation
                  JOINT LeftHandIndex2
                  {
                    OFFSET 3.3146 -0.808304 0.5841
                    CHANNELS 3 Zrotation Xrotation Yrotation
                    JOINT LeftHandIndex3
                    {
                      OFFSET 2.2628 -0.552002 0.3989
                      CHANNELS 3 Zrotation Xrotation Yrotation
                      End Site
                      {
                        OFFSET 1.6102 -0.4807 0.2612
                      }
                    }
                  }
                }
                JOINT LeftHandMiddle1
                {
                  OFFSET 8.9937 0.895004 0.2143
                  CHANNELS 3 Zrotation Xrotation Yrotation
                  JOINT LeftHandMiddle2
                  {
                    OFFSET 4.0984 0.0113983 -0.0242
                    CHANNELS 3 Zrotation Xrotation Yrotation
                    JOINT LeftHandMiddle3
                    {
                      OFFSET 2.2716 0.00689697 -0.0138001
                      CHANNELS 3 Zrotation Xrotation Yrotation
                      End Site
                      {
                        OFFSET 2.0404 -0.1441 0.0027
                      }
                    }
                  }
                }
                JOINT LeftHandRing1
                {
                  OFFSET 8.5234 0.597198 -2.0164
                  CHANNELS 3 Zrotation Xrotation Yrotation
                  JOINT LeftHandRing2
                  {
                    OFFSET 3.7188 -0.188293 -0.2328
                    CHANNELS 3 Zrotation Xrotation Yrotation
                    JOINT LeftHandRing3
                    {
                      OFFSET 2.1191 -0.106598 -0.1332
                      CHANNELS 3 Zrotation Xrotation Yrotation
                      End Site
                      {
                        OFFSET 1.8737 -0.2304 -0.0886
                      }
                    }
                  }
                }
                JOINT LeftHandPinky1
                {
                  OFFSET 7.9094 -0.601089 -3.4825
                  CHANNELS 3 Zrotation Xrotation Yrotation
                  JOINT LeftHandPinky2
                  {
                    OFFSET 2.2874 -0.477005 -0.6314
                    CHANNELS 3 Zrotation Xrotation Yrotation
                    JOINT LeftHandPinky3
                    {
                      OFFSET 1.6774 -0.349396 -0.4633
                      CHANNELS 3 Zrotation Xrotation Yrotation
                      End Site
                      {
                        OFFSET 1.4888 -0.4091 -0.3416
                      }
                    }
                  }
                }
                JOINT LeftHandThumb1
                {
                  OFFSET 1.833 -1.3875 1.3896
                  CHANNELS 3 Zrotation Xrotation Yrotation
                  JOINT LeftHandThumb2
                  {
                    OFFSET 3.4129 -1.121 2.5732
                    CHANNELS 3 Zrotation Xrotation Yrotation
                    JOINT LeftHandThumb3
                    {
                      OFFSET 2.2474 -0.804199 1.6192
                      CHANNELS 3 Zrotation Xrotation Yrotation
                      End Site
                      {
                        OFFSET 1.6527 -0.5689 1.1317
                      }
                    }
                  }
                }
              }
            }
          }
        }
        JOINT RightShoulder
        {
          OFFSET -2.2086 21.1115 7.2329
          CHANNELS 3 Zrotation Xrotation Yrotation
          JOINT RightArm
          {
            OFFSET -13.1216 3.0287 -4.9007
            CHANNELS 3 Zrotation Xrotation Yrotation
            JOINT RightForeArm
            {
              OFFSET -27.4081 -0.0973053 -0.2375
              CHANNELS 3 Zrotation Xrotation Yrotation
              JOINT RightHand
              {
                OFFSET -22.8641 0.0664063 -0.1369
                CHANNELS 3 Zrotation Xrotation Yrotation
                JOINT RightHandIndex1
                {
                  OFFSET -8.8614 0.774994 2.4612
                  CHANNELS 3 Zrotation Xrotation Yrotation
                  JOINT RightHandIndex2
                  {
                    OFFSET -3.3146 -0.808304 0.5841
                    CHANNELS 3 Zrotation Xrotation Yrotation
                    JOINT RightHandIndex3
                    {
                      OFFSET -2.2628 -0.552002 0.3989
                      CHANNELS 3 Zrotation Xrotation Yrotation
                      End Site
                      {
                        OFFSET -1.6102 -0.4807 0.2612
                      }
                    }
                  }
                }
                JOINT RightHandMiddle1
                {
                  OFFSET -8.9937 0.894989 0.2143
                  CHANNELS 3 Zrotation Xrotation Yrotation
                  JOINT RightHandMiddle2
                  {
                    OFFSET -4.0984 0.0113983 -0.0242
                    CHANNELS 3 Zrotation Xrotation Yrotation
                    JOINT RightHandMiddle3
                    {
                      OFFSET -2.2716 0.00691223 -0.0138001
                      CHANNELS 3 Zrotation Xrotation Yrotation
                      End Site
                      {
                        OFFSET -2.0404 -0.1441 0.0027
                      }
                    }
                  }
                }
                JOINT RightHandRing1
                {
                  OFFSET -8.5234 0.597198 -2.0164
                  CHANNELS 3 Zrotation Xrotation Yrotation
                  JOINT RightHandRing2
                  {
                    OFFSET -3.7188 -0.188309 -0.2328
                    CHANNELS 3 Zrotation Xrotation Yrotation
                    JOINT RightHandRing3
                    {
                      OFFSET -2.1191 -0.106598 -0.1332
                      CHANNELS 3 Zrotation Xrotation Yrotation
                      End Site
                      {
                        OFFSET -1.8737 -0.2304 -0.0886
                      }
                    }
                  }
                }
                JOINT RightHandPinky1
                {
                  OFFSET -7.9094 -0.601105 -3.4825
                  CHANNELS 3 Zrotation Xrotation Yrotation
                  JOINT RightHandPinky2
                  {
                    OFFSET -2.2874 -0.477005 -0.6314
                    CHANNELS 3 Zrotation Xrotation Yrotation
                    JOINT RightHandPinky3
                    {
                      OFFSET -1.6774 -0.349396 -0.4633
                      CHANNELS 3 Zrotation Xrotation Yrotation
                      End Site
                      {
                        OFFSET -1.4888 -0.4091 -0.3416
                      }
                    }
                  }
                }
                JOINT RightHandThumb1
                {
                  OFFSET -1.833 -1.38751 1.3896
                  CHANNELS 3 Zrotation Xrotation Yrotation
                  JOINT RightHandThumb2
                  {
                    OFFSET -3.41299 -1.12099 2.5732
                    CHANNELS 3 Zrotation Xrotation Yrotation
                    JOINT RightHandThumb3
                    {
                      OFFSET -2.24741 -0.804108 1.6192
                      CHANNELS 3 Zrotation Xrotation Yrotation
                      End Site
                      {
                        OFFSET -1.6527 -0.5689 1.1317
                      }
                    }
                  }
                }
              }
            }
          }
        }
      }
    }
  }
  JOINT RightUpLeg
  {
    OFFSET -9.1966 3.8861 -0.7581
    CHANNELS 3 Zrotation Xrotation Yrotation
    JOINT RightLeg
    {
      OFFSET -0.7359 -41.0265 0
      CHANNELS 3 Zrotation Xrotation Yrotation
      JOINT RightFoot
      {
        OFFSET 0 -40.2855 0
        CHANNELS 3 Zrotation Xrotation Yrotation
        JOINT RightToeBase
        {
          OFFSET 0 -5.6122 11.7359
          CHANNELS 3 Zrotation Xrotation Yrotation
          End Site
          {
            OFFSET 0 0 7.8731
          }
        }
      }
    }
  }
  JOINT LeftUpLeg
  {
    OFFSET 9.1965 3.8864 -0.7581
    CHANNELS 3 Zrotation Xrotation Yrotation
    JOINT LeftLeg
    {
      OFFSET 0.7359 -41.0268 0
      CHANNELS 3 Zrotation Xrotation Yrotation
      JOINT LeftFoot
      {
        OFFSET 0 -40.2855 0
        CHANNELS 3 Zrotation Xrotation Yrotation
        JOINT LeftToeBase
        {
          OFFSET 0 -5.6122 11.7359
          CHANNELS 3 Zrotation Xrotation Yrotation
          End Site
          {
            OFFSET 0 0 7.8731
          }
        }
      }
    }
  }
}
MOTION
Frames:	4
Frame Time:	0.0333333
-0.525006 62.2115 7.18181 -0 -7.19894 -0 -0.160872 0.995365 3.26012 -0.378196 1.98001 6.52448 -0.378195 1.98001 6.52448 21.3704 -20.1988 -32.3085 -2.13031e-007 18.2947 -5.13132e-006 47.658 -10.0278 -17.4565 -63.0796 1.21324 -16.0372 -33.1808 0.365113 -131.54 -27.42 -2.57426 -3.96843 -6.36111e-015 0 -0 -3.48661e-007 9.9131e-007 -2.63257e-007 3.48661e-007 -9.9131e-007 2.63257e-007 -6.36111e-015 0 -0 -0.0146928 -8.83432e-005 -1.24334e-006 3.18055e-015 9.54166e-015 -6.36111e-015 -6.36111e-015 0 -0 -0.0186977 -0.00117197 5.64709e-005 -6.36111e-015 3.18055e-015 -6.36111e-015 -6.36111e-015 0 -0 -0.012236 -0.00323481 0.000678964 0 0 -0 -6.36111e-015 0 -0 -3.48661e-007 9.9131e-007 -2.63257e-007 3.48661e-007 -9.9131e-007 2.63257e-007 10.6639 -10.7925 14.6282 62.4263 0.557303 17.0547 -6.09955 -1.9096 59.6243 56.4572 -13.4786 -8.05097 1.16871e-006 4.51055e-007 -1.15421e-006 -1.10348e-032 -1.59028e-015 -3.97569e-016 1.16871e-006 4.51055e-007 -1.15421e-006 1.16871e-006 4.51055e-007 -1.15421e-006 0.0150262 -9.11995e-005 -6.92152e-006 1.16869e-006 4.50904e-007 -1.15427e-006 1.16871e-006 4.51055e-007 -1.15421e-006 0.0189717 -0.00118877 -5.93172e-005 1.16868e-006 4.50866e-007 -1.15429e-006 1.16871e-006 4.51055e-007 -1.15421e-006 0.0122341 -0.00323093 -0.000680383 1.16866e-006 4.50943e-007 -1.15429e-006 1.16871e-006 4.51055e-007 -1.15421e-006 -1.10348e-032 -1.59028e-015 -3.97569e-016 1.16871e-006 4.51055e-007 -1.15421e-006 -18.4155 -13.3988 -13.038 -1.58699 39.6004 1.26271 22.7031 -14.1418 1.21755 6.13529e-008 -3.67609e-007 2.48493e-008 7.96206 -17.051 14.0655 4.74902 52.007 -3.25692 -13.9592 -26.1319 -0.21246 -1.75284e-008 -1.05027e-007 -7.16594e-009 
-0.525052 62.2409 7.12316 -0 -6.93185 -0 -0.174672 0.885097 3.26051 -0.399489 1.75892 6.52485 -0.39949 1.75891 6.52485 21.344 -20.0152 -32.385 -2.35966e-006 18.357 2.25736e-006 47.5532 -9.85578 -17.658 -63.187 1.26651 -16.0308 -33.1226 0.431135 -131.558 -27.5126 -2.47567 -3.82328 0 0 -3.18055e-015 -4.77083e-015 -3.18055e-015 -9.54166e-015 1.59028e-015 3.18055e-015 -3.18055e-015 0 0 -3.18055e-015 -0.0147218 -8.73475e-005 -2.56688e-008 -1.59028e-015 3.18055e-015 -0 0 0 -3.18055e-015 -0.0187778 -0.00117675 5.77151e-005 -0 0 3.18055e-015 0 0 -3.18055e-015 -0.0121902 -0.00322594 0.000672073 6.36111e-015 -3.18055e-015 -3.18055e-015 0 0 -3.18055e-015 -4.77083e-015 -3.18055e-015 -9.54166e-015 1.59028e-015 3.18055e-015 -3.18055e-015 10.858 -10.381 14.6614 62.3273 0.514727 17.0324 -6.09955 -1.90961 59.6243 56.4408 -13.3343 -7.99355 3.7932e-032 3.97569e-016 -5.46658e-015 6.36111e-015 -7.95139e-016 -5.26779e-015 6.36111e-015 -1.59028e-015 -2.18663e-015 3.7932e-032 3.97569e-016 -5.46658e-015 0.0149854 -9.2637e-005 -4.14567e-006 3.18055e-015 7.95139e-016 -0 3.7932e-032 3.97569e-016 -5.46658e-015 0.0190651 -0.00119247 -5.76849e-005 -3.18055e-015 7.95139e-016 -4.57205e-015 3.7932e-032 3.97569e-016 -5.46658e-015 0.012324 -0.00326027 -0.000678759 4.01442e-007 7.6627e-008 6.35415e-007 3.7932e-032 3.97569e-016 -5.46658e-015 6.36111e-015 -7.95139e-016 -5.26779e-015 6.36111e-015 -1.59028e-015 -2.18663e-015 -18.4107 -13.6123 -13.0759 -1.54624 39.4565 1.23927 22.6713 -14.0661 1.13355 8.76483e-009 -5.25156e-008 3.55034e-009 7.95957 -17.2938 14.0786 4.70399 51.8976 -3.2234 -13.9297 -26.0522 -0.164906 -2.59223e-008 9.63556e-009 -1.6876e-006 
-0.525101 62.2704 7.06442 -0 -6.66477 -0 -0.188464 0.774918 3.26083 -0.420768 1.53786 6.52507 -0.420768 1.53786 6.52507 21.318 -19.8317 -32.4613 2.33531e-006 18.4192 -6.83066e-006 47.4489 -9.68349 -17.8592 -63.2943 1.31977 -16.0243 -33.0643 0.497155 -131.577 -27.6054 -2.37734 -3.67799 -5.18999e-007 -2.49981e-007 -1.59101e-006 -2.13243e-006 5.48727e-006 -8.9797e-007 1.07201e-006 -4.79232e-007 -2.11001e-006 -5.18999e-007 -2.49981e-007 -1.59101e-006 -0.0146675 -8.57837e-005 6.00776e-007 1.41853e-006 -1.46971e-006 -1.84815e-006 -5.18999e-007 -2.49981e-007 -1.59101e-006 -0.0188368 -0.00116948 5.73467e-005 1.41799e-006 -1.46977e-006 -1.84821e-006 -5.18999e-007 -2.49981e-007 -1.59101e-006 -0.0122026 -0.00322992 0.000671782 1.07195e-006 -4.79014e-007 -2.11009e-006 -5.18999e-007 -2.49981e-007 -1.59101e-006 -2.13243e-006 5.48727e-006 -8.9797e-007 1.07201e-006 -4.79232e-007 -2.11001e-006 11.0516 -9.96948 14.6931 62.2284 0.472182 17.01 -6.09955 -1.9096 59.6243 56.4243 -13.1901 -7.93615 -6.89673e-034 -3.97569e-016 -9.93923e-017 4.04251e-007 8.29379e-008 6.37238e-007 -4.04251e-007 -8.29379e-008 -6.37238e-007 -6.89673e-034 -3.97569e-016 -9.93923e-017 0.0150173 -9.13227e-005 -5.63105e-007 4.18976e-030 9.93923e-015 -2.41523e-014 -6.89673e-034 -3.97569e-016 -9.93923e-017 0.0189891 -0.00118258 -5.42503e-005 -8.27607e-033 1.19271e-015 3.97569e-016 -6.89673e-034 -3.97569e-016 -9.93923e-017 0.0122871 -0.00324988 -0.000680015 -6.36111e-015 7.95139e-016 6.95746e-016 -6.89673e-034 -3.97569e-016 -9.93923e-017 4.04251e-007 8.29379e-008 6.37238e-007 -4.04251e-007 -8.29379e-008 -6.37238e-007 -18.4062 -13.8255 -13.1137 -1.50557 39.3123 1.21598 22.6395 -13.9903 1.04959 -1.753e-008 1.05031e-007 -7.10176e-009 7.957 -17.538 14.0917 4.65973 51.7895 -3.19023 -13.9003 -25.9725 -0.117436 -2.59227e-008 9.64495e-009 -1.6876e-006 
-0.525146 62.3 7.00558 -0 -6.39771 -0 -0.202248 0.664699 3.26108 -0.44203 1.31686 6.52511 -0.44203 1.31686 6.52511 21.2923 -19.648 -32.5374 2.83986e-006 18.4814 -2.78472e-006 47.3454 -9.51081 -18.0598 -63.4017 1.37301 -16.0176 -33.0059 0.563155 -131.595 -27.6985 -2.27923 -3.53255 1.05934e-030 9.54166e-015 -6.36111e-015 -1.59028e-015 0 -3.18055e-015 -3.18055e-015 0 -6.36111e-015 1.05934e-030 9.54166e-015 -6.36111e-015 -0.0146091 -8.55116e-005 2.03146e-006 3.18055e-015 -3.18055e-015 6.36111e-015 1.05934e-030 9.54166e-015 -6.36111e-015 -0.0187662 -0.0011731 5.59476e-005 1.74931e-014 -1.27222e-014 -9.54166e-015 1.05934e-030 9.54166e-015 -6.36111e-015 -0.0121788 -0.00322325 0.000667976 -1.59028e-015 -1.27222e-014 -0 1.05934e-030 9.54166e-015 -6.36111e-015 -1.59028e-015 0 -3.18055e-015 -3.18055e-015 0 -6.36111e-015 11.2447 -9.5579 14.7234 62.1294 0.429677 16.9875 -6.09955 -1.90961 59.6243 56.4076 -13.046 -7.87873 5.85375e-007 2.24437e-007 -5.76404e-007 4.08211e-007 8.90635e-008 6.38947e-007 5.85375e-007 2.24437e-007 -5.76404e-007 5.85375e-007 2.24437e-007 -5.76404e-007 0.0150426 -9.12547e-005 1.36508e-006 5.85367e-007 2.24361e-007 -5.76434e-007 5.85375e-007 2.24437e-007 -5.76404e-007 0.0190319 -0.00119663 -6.60866e-005 5.85359e-007 2.24342e-007 -5.76447e-007 5.85375e-007 2.24437e-007 -5.76404e-007 0.0122764 -0.00324817 -0.000680766 5.85351e-007 2.2438e-007 -5.76444e-007 5.85375e-007 2.24437e-007 -5.76404e-007 4.08211e-007 8.90635e-008 6.38947e-007 5.85375e-007 2.24437e-007 -5.76404e-007 -18.4018 -14.039 -13.1516 -1.46517 39.1685 1.19291 22.6079 -13.9146 0.965724 -3.67752e-015 -1.19271e-015 -9.54166e-015 7.95466 -17.7811 14.1048 4.61522 51.6803 -3.15716 -13.8709 -25.8927 -0.0700523 1.33437e-006 2.70598e-007 -2.78854e-006 
